/* XPM */
static char * myIconImage_xpm[] = {
"16 16 4 1",
" 	c None",
".	c #0000FF",
"+	c #000000",
"@	c #FF0000",
"                ",
" .............. ",
" .            . ",
" . ++++++++++ . ",
" . +@@@@@@@@+ . ",
" . +@@@@@@@@+ . ",
" . +@@@@@@@@+ . ",
" . +@@@@@@@@+ . ",
" . +@@@@@@@@+ . ",
" . +@@@@@@@@+ . ",
" . +@@@@@@@@+ . ",
" . +@@@@@@@@+ . ",
" . ++++++++++ . ",
" .            . ",
" .............. ",
"                "};
